.
 
http://www.scenetime.com    -   SceneTime [ We been having it ] !!!


How come you press harder on a remote control when you know the battery is dead? so you better seed to get speed ;)

        Seed back for speed


...................................NFO:.................................................[pre][img]http://i824.photobucket.com/albums/zz161/akosipalos/mcposter.png[/img]   
            
*******************************************************************************
                    Monte.Carlo.2011.CAM.XviD.AC3-PRESTiGE
*******************************************************************************

-------------------------------------------------------------------------------
                              General Information
-------------------------------------------------------------------------------

TiTLE............: Monte.Carlo.2011.CAM.XviD.AC3-PRESTiGE

iMDB.............: http://www.imdb.com/title/tt1067774/

GENRE............: Adventure | Comedy | Romance 

LANGUAGE.........: English

FORMAT...........: AVi

SOURCE...........: Russian = V / LU = A MANY THANKS!!!

FiLE SiZE........: 728 MB

SAMPLE iNCLUDED..: YES

SUBS.............: N/A

DURATiON.........: 1h 43mn

ENCODED by.......: [color=maroon]akosipalos[/color]

Encoder's Notes..: Sample is included so Enjoy this PRESTiGE Release and the choice is yours to download.. You can download this movie and see it by yourself for FREE :D ENjoy!! 



ViDEO iNFO:

ID                               : 0
Format                           : MPEG-4 Visual
Format profile                   : Advanced Simple@L5
Format settings, BVOP            : 1
Format settings, QPel            : No
Format settings, GMC             : No warppoints
Format settings, Matrix          : Default (H.263)
Muxing mode                      : Packed bitstream
Codec ID                         : XVID
Codec ID/Hint                    : XviD
Duration                         : 1h 43mn
Bit rate                         : 524 Kbps
Width                            : 720 pixels
Height                           : 384 pixels
Display aspect ratio             : 1.875
Frame rate                       : 25.000 fps
Color space                      : YUV
Chroma subsampling               : 4:2:0
Bit depth                        : 8 bits
Scan type                        : Progressive
Compression mode                 : Lossy
Bits/(Pixel*Frame)               : 0.076
Stream size                      : 389 MiB (53%)
Writing library                  : XviD 62


AUDiO iNFO:

ID                               : 1
Format                           : AC-3
Format/Info                      : Audio Coding 3
Mode extension                   : CM (complete main)
Codec ID                         : 2000
Duration                         : 1h 43mn
Bit rate mode                    : Constant
Bit rate                         : 448 Kbps
Channel(s)                       : 2 channels
Channel positions                : Front: L R
Sampling rate                    : 44.1 KHz
Bit depth                        : 16 bits
Compression mode                 : Lossy
Delay relative to video          : 139ms
Stream size                      : 333 MiB (46%)
Alignment                        : Split accross interleaves
Interleave, duration             : 64 ms (1.60 video frames)
Interleave, preload duration     : 500 ms


-------------------------------------------------------------------------------
                                 PLOT:
-------------------------------------------------------------------------------


Three young women vacationing in Paris find themselves whisked away to Monte Carlo after one of the girls is mistaken for a British heiress.


-------------------------------------------------------------------------------
                                 CAST:
-------------------------------------------------------------------------------


Selena Gomez as Grace / Cordelia Winthrop Scott

Katie Cassidy as Emma

Leighton Meester as Meg

Cory Monteith as Owen

Andie MacDowell as Pam

Brett Cullen as Robert

Amanda Fairbank-Hynes as Amanda

Joe Camp III as Carl at Diner

Luke Bracey as Riley

Valrie Lemercier as Madame Valerie 


-------------------------------------------------------------------------------
                               SCREENS:
-------------------------------------------------------------------------------


[img]http://i824.photobucket.com/albums/zz161/akosipalos/mc1-1.png[/img]

[img]http://i824.photobucket.com/albums/zz161/akosipalos/mc2-1.png[/img]

[img]http://i824.photobucket.com/albums/zz161/akosipalos/mc3-1.png[/img]

[img]http://i824.photobucket.com/albums/zz161/akosipalos/mc4-1.png[/img]

[img]http://i824.photobucket.com/albums/zz161/akosipalos/mc5-1.png[/img]



-------------------------------------------------------------------------------
                             Release Notes
-------------------------------------------------------------------------------

WE DONT RELEASE EVERYTHING TO OTHERS SITES YOU WANT MORE OF OUR STUFF COME FIND US AT .......

WE ARE LOOKING FOR SUPPLIERS BLURAY CAM R5 PRE RETAIL DVD GOT SOMETHING WE MIGHT LIKE WHEN YOU FIND US TELL US.......



ENCODER'S - ANYTHING AT ALL EMAIL US AT..... prestige@hushmail.me

** ** ** ** ** ** ** ** **

PRESTiGE is the level of respect at which one is regarded by others....RIzE Above Or Sink Below...


-------------------------------------------------------------------------------
                                 GREETZ:
-------------------------------------------------------------------------------


| Bigguy | DiLLoN | Thorn | Flawl3ss | Imagine | CTFX | BMB | akosipalos | HiTM4N | Whitestag13 | and To All Encoders Past And Present...


-------------------------------------------------------------------------------
Generated with Cool NFO Creator - http://fly.to/coolbeans
-------------------------------------------------------------------------------
[/pre]